<svg width="61" height="52" viewBox="0 0 61 52" fill="none" xmlns="http://www.w3.org/2000/svg">
<path d="M20.1401 30.3972L14.47 35.3015C13.8819 35.8089 14.1342 36.7734 14.8965 36.9295L17.3249 37.4266C17.5177 37.4661 17.7193 37.4442 17.8988 37.3623L35.0598 29.6258" stroke="white" stroke-width="2" stroke-miterlimit="10" stroke-linecap="round" stroke-linejoin="round"/>
<path d="M49.4692 24.8685L36.9967 22.3151L29.1841 5.78729C29.068 5.51281 28.8184 5.32965 28.5245 5.26948L25.5671 4.66403C24.9793 4.54369 24.4215 5.02471 24.4523 5.6224L25.0568 19.8707L13.2456 17.4526C12.0148 17.2007 11.0001 16.3613 10.531 15.1935L8.92726 11.2479C8.81458 10.9569 8.55077 10.7498 8.23849 10.6859L6.36485 10.3023C5.72194 10.1707 5.15322 10.705 5.24955 11.3563L6.0831 17.2877C6.65731 21.2139 9.61052 24.364 13.4864 25.1575L53.3104 33.3104C54.633 33.5812 55.9165 32.7339 56.1872 31.4113C56.3527 30.6031 56.099 29.7856 55.5317 29.191L53.2952 26.9341C52.2483 25.8776 50.9204 25.1656 49.4692 24.8685Z" stroke="white" stroke-width="2" stroke-miterlimit="10" stroke-linecap="round" stroke-linejoin="round"/>
<path d="M43.7759 27.5307L43.5922 27.4931" stroke="white" stroke-width="2" stroke-miterlimit="10" stroke-linecap="round" stroke-linejoin="round"/>
<path d="M40.1021 26.7786L39.9184 26.741" stroke="white" stroke-width="2" stroke-miterlimit="10" stroke-linecap="round" stroke-linejoin="round"/>
<path d="M36.4283 26.0265L36.2446 25.9889" stroke="white" stroke-width="2" stroke-miterlimit="10" stroke-linecap="round" stroke-linejoin="round"/>
<path d="M32.7545 25.2743L32.5708 25.2367" stroke="white" stroke-width="2" stroke-miterlimit="10" stroke-linecap="round" stroke-linejoin="round"/>
<path d="M29.0807 24.5222L28.897 24.4846" stroke="white" stroke-width="2" stroke-miterlimit="10" stroke-linecap="round" stroke-linejoin="round"/>
<path d="M25.4069 23.7701L25.2232 23.7325" stroke="white" stroke-width="2" stroke-miterlimit="10" stroke-linecap="round" stroke-linejoin="round"/>
<path d="M21.7331 23.018L21.5494 22.9804" stroke="white" stroke-width="2" stroke-miterlimit="10" stroke-linecap="round" stroke-linejoin="round"/>
<path d="M18.0593 22.2659L17.8756 22.2283" stroke="white" stroke-width="2" stroke-miterlimit="10" stroke-linecap="round" stroke-linejoin="round"/>
<path d="M7 51H57.625" stroke="white" stroke-width="2" stroke-miterlimit="10" stroke-linecap="round" stroke-linejoin="round"/>
</svg>
