<svg width="70" height="70" viewBox="0 0 70 70" fill="none" xmlns="http://www.w3.org/2000/svg">
<path d="M48.4375 37H48.25" stroke="white" stroke-width="1.875" stroke-miterlimit="10" stroke-linecap="round" stroke-linejoin="round"/>
<path d="M44.6875 37H44.5" stroke="white" stroke-width="1.875" stroke-miterlimit="10" stroke-linecap="round" stroke-linejoin="round"/>
<path d="M40.9375 37H40.75" stroke="white" stroke-width="1.875" stroke-miterlimit="10" stroke-linecap="round" stroke-linejoin="round"/>
<path d="M37.1875 37H37" stroke="white" stroke-width="1.875" stroke-miterlimit="10" stroke-linecap="round" stroke-linejoin="round"/>
<path d="M33.4375 37H33.25" stroke="white" stroke-width="1.875" stroke-miterlimit="10" stroke-linecap="round" stroke-linejoin="round"/>
<path d="M29.6875 37H29.5" stroke="white" stroke-width="1.875" stroke-miterlimit="10" stroke-linecap="round" stroke-linejoin="round"/>
<path d="M25.9375 37H25.75" stroke="white" stroke-width="1.875" stroke-miterlimit="10" stroke-linecap="round" stroke-linejoin="round"/>
<path d="M22.1875 37H22" stroke="white" stroke-width="1.875" stroke-miterlimit="10" stroke-linecap="round" stroke-linejoin="round"/>
<circle cx="35" cy="35" r="33" stroke="white" stroke-width="4"/>
<path d="M54.0899 34H41.3586L30.3899 19.375C30.2211 19.1294 29.9399 19 29.6399 19H26.6211C26.0211 19 25.5711 19.5831 25.7211 20.1625L29.1711 34H17.1149C15.8586 34 14.6961 33.3812 14.0024 32.3312L11.6399 28.7875C11.4711 28.525 11.1711 28.375 10.8524 28.375H8.93988C8.28363 28.375 7.83363 29.0125 8.05863 29.6313L10.0649 35.275C11.4149 39.0063 14.9399 41.5 18.8961 41.5H59.5461C60.8961 41.5 61.9836 40.4125 61.9836 39.0625C61.9836 38.2375 61.5711 37.4875 60.8961 37.0187L58.2524 35.2563C57.0149 34.4313 55.5711 34 54.0899 34Z" stroke="white" stroke-width="2" stroke-miterlimit="10" stroke-linecap="round" stroke-linejoin="round"/>
<path d="M17 10L55 62" stroke="white" stroke-width="4"/>
</svg>
