<svg width="57" height="53" viewBox="0 0 57 53" fill="none" xmlns="http://www.w3.org/2000/svg">
<path d="M19.8569 27.2988L15.2856 33.2406C14.8113 33.8556 15.2519 34.75 16.03 34.75H18.5088C18.7056 34.75 18.8988 34.6881 19.0581 34.5719L34.3188 23.5506" stroke="white" stroke-width="2" stroke-miterlimit="10" stroke-linecap="round" stroke-linejoin="round"/>
<path d="M47.4813 16H34.75L23.7813 1.375C23.6125 1.12938 23.3313 1 23.0313 1H20.0125C19.4125 1 18.9625 1.58312 19.1125 2.1625L22.5625 16H10.5063C9.25001 16 8.08751 15.3812 7.39376 14.3312L5.03126 10.7875C4.86251 10.525 4.56251 10.375 4.24376 10.375H2.33126C1.67501 10.375 1.22501 11.0125 1.45001 11.6313L3.45626 17.275C4.80626 21.0063 8.33126 23.5 12.2875 23.5H52.9375C54.2875 23.5 55.375 22.4125 55.375 21.0625C55.375 20.2375 54.9625 19.4875 54.2875 19.0187L51.6438 17.2563C50.4063 16.4313 48.9625 16 47.4813 16Z" stroke="white" stroke-width="2" stroke-miterlimit="10" stroke-linecap="round" stroke-linejoin="round"/>
<path d="M42.4375 19.75H42.25" stroke="white" stroke-width="2" stroke-miterlimit="10" stroke-linecap="round" stroke-linejoin="round"/>
<path d="M38.6875 19.75H38.5" stroke="white" stroke-width="2" stroke-miterlimit="10" stroke-linecap="round" stroke-linejoin="round"/>
<path d="M34.9375 19.75H34.75" stroke="white" stroke-width="2" stroke-miterlimit="10" stroke-linecap="round" stroke-linejoin="round"/>
<path d="M31.1875 19.75H31" stroke="white" stroke-width="2" stroke-miterlimit="10" stroke-linecap="round" stroke-linejoin="round"/>
<path d="M27.4375 19.75H27.25" stroke="white" stroke-width="2" stroke-miterlimit="10" stroke-linecap="round" stroke-linejoin="round"/>
<path d="M23.6875 19.75H23.5" stroke="white" stroke-width="2" stroke-miterlimit="10" stroke-linecap="round" stroke-linejoin="round"/>
<path d="M19.9375 19.75H19.75" stroke="white" stroke-width="2" stroke-miterlimit="10" stroke-linecap="round" stroke-linejoin="round"/>
<path d="M16.1875 19.75H16" stroke="white" stroke-width="2" stroke-miterlimit="10" stroke-linecap="round" stroke-linejoin="round"/>
<path d="M13.2456 39.9044C12.1113 37.9431 9.99062 36.625 7.5625 36.625C3.93625 36.625 1 39.5612 1 43.1875C1 46.8119 3.93625 49.75 7.5625 49.75" stroke="white" stroke-width="2" stroke-miterlimit="10" stroke-linecap="round"/>
<path d="M18.8106 47.8788C19.3994 47.095 19.75 46.1181 19.75 45.0625C19.75 42.4731 17.6519 40.375 15.0625 40.375C13.6938 40.375 12.4581 40.9619 11.6013 41.8994" stroke="white" stroke-width="2" stroke-miterlimit="10" stroke-linecap="round" stroke-linejoin="round"/>
<path d="M30.5425 40.3731C31.7012 37.0975 34.8269 34.75 38.5 34.75C41.7081 34.75 44.4981 36.5406 45.925 39.175" stroke="white" stroke-width="2" stroke-miterlimit="10" stroke-linecap="round" stroke-linejoin="round"/>
<path d="M23.5769 47.9406C23.5263 47.6144 23.5 47.2787 23.5 46.9375C23.5 43.3112 26.4362 40.375 30.0625 40.375C31.0919 40.375 32.0669 40.6131 32.9331 41.0369" stroke="white" stroke-width="2" stroke-miterlimit="10" stroke-linecap="round" stroke-linejoin="round"/>
<path d="M42.8819 42.2481C43.9337 40.0319 46.195 38.5 48.8125 38.5C52.4388 38.5 55.375 41.4362 55.375 45.0625C55.375 48.6869 52.4388 51.625 48.8125 51.625H29.125" stroke="white" stroke-width="2" stroke-miterlimit="10" stroke-linecap="round" stroke-linejoin="round"/>
</svg>
