<svg width="57" height="34" viewBox="0 0 57 34" fill="none" xmlns="http://www.w3.org/2000/svg">
<path d="M47.0899 16H34.3586L23.3899 1.375C23.2211 1.12938 22.9399 1 22.6399 1H19.6211C19.0211 1 18.5711 1.58312 18.7211 2.1625L22.1711 16H10.1149C8.85863 16 7.69613 15.3812 7.00238 14.3312L4.63988 10.7875C4.47113 10.525 4.17113 10.375 3.85238 10.375H1.93988C1.28363 10.375 0.833634 11.0125 1.05863 11.6313L3.06488 17.275C4.41488 21.0063 7.93988 23.5 11.8961 23.5H52.5461C53.8961 23.5 54.9836 22.4125 54.9836 21.0625C54.9836 20.2375 54.5711 19.4875 53.8961 19.0187L51.2524 17.2563C50.0149 16.4313 48.5711 16 47.0899 16Z" stroke="white" stroke-width="2" stroke-miterlimit="10" stroke-linecap="round" stroke-linejoin="round"/>
<path d="M42.0461 19.75H41.8586" stroke="white" stroke-width="2" stroke-miterlimit="10" stroke-linecap="round" stroke-linejoin="round"/>
<path d="M38.2961 19.75H38.1086" stroke="white" stroke-width="2" stroke-miterlimit="10" stroke-linecap="round" stroke-linejoin="round"/>
<path d="M34.5461 19.75H34.3586" stroke="white" stroke-width="2" stroke-miterlimit="10" stroke-linecap="round" stroke-linejoin="round"/>
<path d="M30.7961 19.75H30.6086" stroke="white" stroke-width="2" stroke-miterlimit="10" stroke-linecap="round" stroke-linejoin="round"/>
<path d="M27.0461 19.75H26.8586" stroke="white" stroke-width="2" stroke-miterlimit="10" stroke-linecap="round" stroke-linejoin="round"/>
<path d="M23.2961 19.75H23.1086" stroke="white" stroke-width="2" stroke-miterlimit="10" stroke-linecap="round" stroke-linejoin="round"/>
<path d="M19.5461 19.75H19.3586" stroke="white" stroke-width="2" stroke-miterlimit="10" stroke-linecap="round" stroke-linejoin="round"/>
<path d="M15.7961 19.75H15.6086" stroke="white" stroke-width="2" stroke-miterlimit="10" stroke-linecap="round" stroke-linejoin="round"/>
<path d="M4.4447 32.0707H55.0697" stroke="white" stroke-width="2" stroke-miterlimit="10" stroke-linecap="round" stroke-linejoin="round"/>
</svg>
