<svg width="61" height="61" viewBox="0 0 61 61" fill="none" xmlns="http://www.w3.org/2000/svg">
<path d="M40.3593 42.8783H40.2148" stroke="white" stroke-width="1.875" stroke-miterlimit="10" stroke-linecap="round" stroke-linejoin="round"/>
<path d="M37.468 42.8783H37.3235" stroke="white" stroke-width="1.875" stroke-miterlimit="10" stroke-linecap="round" stroke-linejoin="round"/>
<path d="M34.5767 42.8783H34.4322" stroke="white" stroke-width="1.875" stroke-miterlimit="10" stroke-linecap="round" stroke-linejoin="round"/>
<path d="M31.6854 42.8783H31.5409" stroke="white" stroke-width="1.875" stroke-miterlimit="10" stroke-linecap="round" stroke-linejoin="round"/>
<path d="M28.7941 42.8783H28.6496" stroke="white" stroke-width="1.875" stroke-miterlimit="10" stroke-linecap="round" stroke-linejoin="round"/>
<path d="M25.9028 42.8783H25.7583" stroke="white" stroke-width="1.875" stroke-miterlimit="10" stroke-linecap="round" stroke-linejoin="round"/>
<path d="M23.0115 42.8783H22.8669" stroke="white" stroke-width="1.875" stroke-miterlimit="10" stroke-linecap="round" stroke-linejoin="round"/>
<path d="M20.1202 42.8783H19.9756" stroke="white" stroke-width="1.875" stroke-miterlimit="10" stroke-linecap="round" stroke-linejoin="round"/>
<path d="M44.8586 40.3333H34.9535L26.4196 29.2833C26.2883 29.0978 26.0695 29 25.8361 29H23.4875C23.0207 29 22.6706 29.4406 22.7873 29.8783L25.4714 40.3333H16.0915C15.1141 40.3333 14.2097 39.8658 13.6699 39.0725L11.8319 36.395C11.7006 36.1967 11.4672 36.0833 11.2192 36.0833H9.73124C9.22067 36.0833 8.87056 36.565 9.04562 37.0325L10.6065 41.2967C11.6568 44.1158 14.3993 46 17.4773 46H49.1036C50.1539 46 51 45.1783 51 44.1583C51 43.535 50.6791 42.9683 50.1539 42.6142L48.097 41.2825C47.1342 40.6592 46.011 40.3333 44.8586 40.3333Z" stroke="white" stroke-width="2" stroke-miterlimit="10" stroke-linecap="round" stroke-linejoin="round"/>
<path d="M3 21.3333H58M15.2222 3V9.11111M45.7778 3V9.11111M12.7778 58H48.2222C51.6447 58 53.3562 58 54.6633 57.3339C55.8131 56.7481 56.7481 55.8131 57.3339 54.6633C58 53.3562 58 51.6447 58 48.2222V18.8889C58 15.4663 58 13.7551 57.3339 12.4478C56.7481 11.2979 55.8131 10.3631 54.6633 9.77719C53.3562 9.11111 51.6447 9.11111 48.2222 9.11111H12.7778C9.35525 9.11111 7.64396 9.11111 6.33673 9.77719C5.18683 10.3631 4.25195 11.2979 3.66608 12.4478C3 13.7551 3 15.4663 3 18.8889V48.2222C3 51.6447 3 53.3562 3.66608 54.6633C4.25195 55.8131 5.18683 56.7481 6.33673 57.3339C7.64396 58 9.35522 58 12.7778 58Z" stroke="white" stroke-width="5" stroke-linecap="round" stroke-linejoin="round"/>
</svg>
