<svg width="57" height="51" viewBox="0 0 57 51" fill="none" xmlns="http://www.w3.org/2000/svg">
<path d="M1 30.8303L8.11563 28.5128" stroke="white" stroke-width="2" stroke-miterlimit="10" stroke-linecap="round" stroke-linejoin="round"/>
<path d="M1 8.3641L11.8656 4.70035" stroke="white" stroke-width="2" stroke-miterlimit="10" stroke-linecap="round" stroke-linejoin="round"/>
<path d="M6.67938 38.2216L17.4906 34.7003" stroke="white" stroke-width="2" stroke-miterlimit="10" stroke-linecap="round" stroke-linejoin="round"/>
<path d="M55.1875 49.1866H55.375" stroke="white" stroke-width="2" stroke-miterlimit="10" stroke-linecap="round" stroke-linejoin="round"/>
<path d="M1 49.1866H51.625" stroke="white" stroke-width="2" stroke-miterlimit="10" stroke-linecap="round" stroke-linejoin="round"/>
<path d="M25.1837 27.041L22.6731 34.1041C22.4125 34.8372 23.1062 35.5497 23.845 35.3097L26.2037 34.5447C26.3912 34.4828 26.5562 34.3647 26.6706 34.2053L37.6469 19.1866" stroke="white" stroke-width="2" stroke-miterlimit="10" stroke-linecap="round" stroke-linejoin="round"/>
<path d="M46.1819 8.33785L35.8581 11.6922L20.9069 1.17347C20.6706 0.993472 20.3631 0.955972 20.0781 1.04972L17.2075 1.9816C16.6375 2.1691 16.3881 2.8591 16.7106 3.36535L24.2669 15.4591L12.8012 19.1828C11.6069 19.5728 10.3094 19.3441 9.32499 18.5585L5.98186 15.9185C5.73999 15.7235 5.40811 15.671 5.10624 15.7703L3.28749 16.3591C2.66311 16.5635 2.43249 17.3078 2.83749 17.8272L6.48999 22.5747C8.92749 25.706 13.0506 26.9885 16.8119 25.766L53.6894 13.7828C54.9737 13.3647 55.6712 11.9941 55.2531 10.7116C55 9.92972 54.3756 9.34285 53.5881 9.10472L50.5281 8.24597C49.0975 7.84472 47.5919 7.88035 46.1819 8.33785Z" stroke="white" stroke-width="2" stroke-miterlimit="10" stroke-linecap="round" stroke-linejoin="round"/>
<path d="M43.33 13L43.1504 13.0537" stroke="white" stroke-width="2" stroke-miterlimit="10" stroke-linecap="round" stroke-linejoin="round"/>
<path d="M39.7371 14.074L39.5575 14.1277" stroke="white" stroke-width="2" stroke-miterlimit="10" stroke-linecap="round" stroke-linejoin="round"/>
<path d="M36.1442 15.148L35.9645 15.2017" stroke="white" stroke-width="2" stroke-miterlimit="10" stroke-linecap="round" stroke-linejoin="round"/>
<path d="M32.5513 16.222L32.3716 16.2757" stroke="white" stroke-width="2" stroke-miterlimit="10" stroke-linecap="round" stroke-linejoin="round"/>
<path d="M28.9584 17.296L28.7787 17.3498" stroke="white" stroke-width="2" stroke-miterlimit="10" stroke-linecap="round" stroke-linejoin="round"/>
<path d="M25.3655 18.3701L25.1858 18.4238" stroke="white" stroke-width="2" stroke-miterlimit="10" stroke-linecap="round" stroke-linejoin="round"/>
<path d="M21.7725 19.4441L21.5929 19.4978" stroke="white" stroke-width="2" stroke-miterlimit="10" stroke-linecap="round" stroke-linejoin="round"/>
<path d="M18.1796 20.5181L18 20.5718" stroke="white" stroke-width="2" stroke-miterlimit="10" stroke-linecap="round" stroke-linejoin="round"/>
</svg>
